<svg id="Capa_1" data-name="Capa 1" xmlns="http://www.w3.org/2000/svg" viewBox="0 0 71.13 71.13"><defs><style>.cls-1{fill:none;stroke:#e6e6e6;stroke-miterlimit:10;stroke-width:0.25px;}</style></defs><title>3</title><path class="cls-1" d="M32.69,48.36c-4.4,0-7.46-.72-9.66-1.87l2-5.07a14.15,14.15,0,0,0,6.41,1.39c3.54,0,5.79-1.82,5.79-4.93,0-4.35-4.16-5.36-8-5.26V28.71c4.69-.48,7.32-2.44,7.32-5.31,0-2.44-1.87-3.63-4.59-3.63a14.77,14.77,0,0,0-6.12,1.29l-1.82-4.69a21.18,21.18,0,0,1,9.18-1.87c6.65,0,10.81,3.11,10.81,8,0,3.63-3,5.88-5.21,6.79v.1c3.49,1.24,6.55,3.59,6.55,8.51C45.27,44.16,40.1,48.36,32.69,48.36Z"/></svg>