<?xml version="1.0" encoding="utf-8"?>
<svg version="1.1" id="Capa_1" xmlns="http://www.w3.org/2000/svg" xmlns:xlink="http://www.w3.org/1999/xlink" x="0px" y="0px"
	 viewBox="0 0 71.1 71.1" style="enable-background:new 0 0 71.1 71.1;" xml:space="preserve">
<style type="text/css">
	.st0{fill:none;stroke:#E6E6E6;stroke-width:0.25;stroke-miterlimit:10;}
</style>
<g>
	<path class="st0" d="M33.9,48.4c-4.3,0-7.4-0.7-9.7-1.9l2-5.1c1.3,0.7,3.5,1.4,6.5,1.4c3.3,0,5.8-1.8,5.8-5c0-3-1.8-5.5-7.9-5.5
		c-1.3,0-2.9,0.1-4.6,0.4L27.8,15H45v6.2H33l-0.6,7c0.5,0,1.1,0,1.6,0c8.8,0,12.4,4.2,12.4,9.9C46.5,43.9,41.4,48.4,33.9,48.4z"/>
</g>
</svg>
