<svg id="diseño" xmlns="http://www.w3.org/2000/svg" viewBox="0 0 21.98 20.99"><defs><style>.cls-1{fill:none;stroke:#fff;stroke-miterlimit:10;stroke-width:0.25px;}</style></defs><title>Artboard 52</title><path class="cls-1" d="M11.13,1.5a9.07,9.07,0,1,0,9.07,9.07A9.07,9.07,0,0,0,11.13,1.5Zm0,2.06A7,7,0,0,1,18,9.37H13.72a2.85,2.85,0,0,0-2.59-1.66A3,3,0,0,0,8.54,9.37H4.24A7,7,0,0,1,11.13,3.57Zm-7,7.51,4.39.69A2.76,2.76,0,0,0,10,13.16v.18l.22,4.17A7,7,0,0,1,4.15,11.08Zm7,.5a1,1,0,1,1,1-1A1,1,0,0,1,11.13,11.58ZM12,17.51l0-.53.24-3.64v-.19a2.86,2.86,0,0,0,1.41-1.4l.27,0,4.12-.65A7,7,0,0,1,12,17.51Z"/></svg>